<?xml version="1.0" encoding="UTF-8"?>
<svg width="1868px" height="1008px" viewBox="0 0 1868 1008" version="1.1" xmlns="http://www.w3.org/2000/svg" xmlns:xlink="http://www.w3.org/1999/xlink">
    <!-- Generator: Sketch 52.6 (67491) - http://www.bohemiancoding.com/sketch -->
    <title>Back Shapes</title>
    <desc>Created with Sketch.</desc>
    <g id="2---Additional" stroke="none" stroke-width="1" fill="none" fill-rule="evenodd">
        <g id="Desktop" transform="translate(216.000000, -92.000000)">
            <g id="Hero" transform="translate(-216.000000, -520.000000)">
                <g id="Video" transform="translate(0.000000, 611.000000)">
                    <g id="Back-Shapes" transform="translate(0.000000, 0.248958)">
                        <path d="M874.784993,712.526163 C874.86841,714.429028 872.962465,716.009244 874.736965,718.189028 C877.633799,717.414163 880.500299,720.389136 883.356688,724.301569 C885.94766,722.718812 882.484604,720.17319 883.106438,718.275406 C884.026549,717.000055 884.911271,717.449731 885.826326,716.514812 C885.434521,709.749352 878.129243,708.580704 874.784993,712.526163 M873.510993,720.506001 C874.54991,720.036001 873.531215,719.250974 874.127771,718.71492 C873.136882,718.229677 872.153576,716.418271 871.155104,716.97465 C871.958938,718.158542 871.802215,720.137623 873.510993,720.506001 M884.079632,742.972001 C884.360215,741.656001 884.509354,740.314596 882.618576,738.645461 C879.605465,740.134217 882.064993,743.055839 884.079632,742.972001 M809.73516,660.818542 C809.113326,658.821677 809.441938,656.042325 807.394438,654.777136 C806.29991,655.437677 806.863604,656.370055 805.576965,657.00265 C807.495549,658.826758 807.151771,662.36065 809.73516,660.818542 M881.663076,745.106055 C880.485132,743.185406 879.289493,743.088866 878.096382,742.631569 C877.014493,744.130488 878.227826,746.007947 878.048354,747.664379 C879.633271,748.281731 881.617576,746.993677 881.663076,745.106055 M853.766521,720.457731 C853.063799,720.351028 852.36866,720.988704 851.660882,721.689893 C852.093132,722.495244 851.751882,723.176109 852.535493,724.034812 C854.085021,724.055136 854.818076,721.842325 853.766521,720.457731 M812.846854,679.882758 C812.346354,680.116488 811.85091,679.872596 811.347882,680.586488 C811.648688,681.153028 811.484382,681.645893 812.225021,682.296271 C813.145132,681.600163 813.913576,680.891352 812.846854,679.882758 M816.608188,694.013244 C815.541465,694.783028 815.503549,695.723028 816.282104,696.792596 C818.094521,697.160974 817.955493,694.155515 816.608188,694.013244 M759.045632,705.481244 C759.963215,704.256704 758.302465,702.427515 756.97791,701.680596 C754.90766,702.892433 757.053743,707.160542 759.045632,705.481244 M860.26291,666.140974 C861.435799,667.947298 862.644076,666.938704 863.837188,667.352812 C865.068215,669.009244 864.173382,670.343028 864.99491,671.943569 C867.449382,672.942001 868.116715,674.377406 870.34116,675.955082 C869.342688,678.500704 867.287604,678.942758 864.916549,680.103785 C861.959049,676.341244 858.971215,675.810271 855.998549,674.260542 C854.661354,674.989677 855.202299,676.018596 853.872688,676.752812 C854.183604,675.129406 851.974326,674.100488 850.614382,673.391677 C849.198826,675.457136 847.811076,674.694974 846.40816,675.231028 C848.50116,675.38092 850.573938,677.603893 852.66441,678.442271 C850.293354,681.932974 847.487521,688.11665 843.031049,684.432866 C843.422854,682.728163 844.009299,681.165731 846.056799,680.517893 C845.672576,677.763947 842.712549,677.278704 841.279299,679.75065 C839.873854,678.99865 839.873854,678.24919 838.913299,676.851893 C836.198465,682.10065 833.00841,678.366055 828.963965,683.739298 C826.196049,682.217515 823.367465,685.324596 820.584382,684.267731 C818.58491,685.62692 819.31291,687.420542 816.957021,688.721298 C815.566743,695.077731 821.431188,693.497515 825.541354,697.966325 C827.626771,698.868217 829.762743,695.430866 831.845632,695.529947 C832.242493,696.068542 832.636826,696.599515 833.043799,696.355623 C834.125688,698.731028 832.095882,700.603406 833.880493,703.093136 C836.077132,701.853352 838.268715,702.186163 840.437549,705.41265 C840.071021,706.296758 839.562938,707.160542 839.519965,708.098001 C840.609438,708.128488 841.701438,709.297136 842.783326,710.816379 C843.099299,712.65319 842.042688,714.266433 843.031049,716.207406 C845.313632,716.875569 847.601271,717.91719 849.91166,716.372542 C850.394465,715.302974 849.696799,714.037785 848.453132,712.686217 C849.383354,711.215244 849.444021,710.315893 851.167965,709.657893 C852.472299,709.792542 853.746299,711.517569 855.040521,711.858001 C855.442438,711.497244 855.844354,711.14919 856.248799,710.798596 C857.004604,709.449569 855.851938,707.793136 856.888326,706.489839 C859.595576,704.650488 862.26491,707.633082 864.97216,705.593028 C866.390243,704.465028 863.882688,702.694271 865.915021,701.660271 C868.579299,703.225244 867.060104,706.614325 868.235521,708.956704 C873.963465,711.014542 878.005382,704.574271 883.806632,708.321569 C886.26616,711.144109 887.001743,713.661785 887.623576,716.179461 C886.609938,716.514812 884.69641,717.520866 884.602882,718.831785 C888.682715,720.234163 892.828271,714.302001 896.855021,720.50092 C896.263521,721.555244 896.574438,722.759461 895.335826,723.712163 C894.344938,722.505406 893.359104,721.296109 892.373271,720.086812 C891.382382,719.322109 890.371271,720.622866 889.375326,720.234163 C890.90716,725.091677 893.874771,730.188001 895.818632,735.111569 C895.014799,736.120163 894.223604,735.642542 893.419771,735.985515 C892.555271,736.788325 892.97741,737.802001 893.088632,738.757244 C897.653799,741.805893 902.226549,742.982163 906.801826,744.758001 C907.820521,744.28292 906.776549,743.492812 906.824576,742.87292 C909.44841,743.518217 908.298271,746.244217 908.573799,747.547515 C909.65316,749.369082 910.775493,746.838704 911.85991,748.403677 C911.270938,750.659677 908.930215,751.007731 908.813938,753.568596 C909.99441,755.227569 912.254243,757.061839 911.761326,758.448974 C911.463049,758.715731 911.15466,758.979947 910.856382,759.241623 C907.17341,756.546109 907.428715,750.425947 903.48791,747.674542 C901.693188,749.064217 901.834743,750.774001 903.437354,752.702271 C902.825632,753.952217 902.780132,753.345028 901.629993,754.297731 C904.574854,754.884596 902.780132,759.536325 903.053132,761.76692 C902.251826,762.572271 901.458104,761.637352 900.66691,760.748163 C899.797354,759.874217 900.118382,759.190812 900.987938,758.598866 C899.577438,758.649677 896.963715,756.985623 896.52641,755.042109 C897.441465,753.527947 898.331243,754.777893 899.23366,753.91919 C895.993049,750.870542 895.993049,744.920596 892.990049,749.440217 C891.809576,748.548488 890.61141,747.722812 889.408188,748.233461 C889.774715,750.512325 894.056771,751.716542 894.446049,754.401893 C891.910688,756.093893 888.452688,751.503136 889.107382,749.127731 C887.63116,748.822866 886.513882,749.267461 886.395076,750.901028 C887.186271,752.171298 887.985049,751.696217 888.76866,753.16465 C887.474438,756.203136 883.806632,756.03292 881.559438,755.778866 C880.361271,757.364163 881.086743,759.267028 878.821854,760.679569 C877.611049,759.536325 877.555438,758.593785 877.949771,757.714758 C876.66566,756.92465 875.36891,756.64519 874.07216,756.767136 C873.058521,760.903136 874.056993,765.369406 875.439688,769.886488 C874.125243,771.774109 873.677826,773.793839 874.196021,775.973623 C877.765243,777.754542 881.321826,781.88292 884.90116,782.744163 C883.960826,784.464109 882.732326,784.631785 881.872882,786.651515 C879.769771,785.73692 879.317299,781.303677 876.837549,781.125839 C872.27491,783.331028 875.871938,786.847136 876.75666,789.92119 C874.951826,790.238758 873.200076,785.856325 871.390188,787.789677 C871.304243,788.201244 871.210715,788.60519 870.778465,788.948163 C871.951354,790.947569 873.159632,790.055839 874.342632,792.050163 C873.187438,793.442379 872.497354,794.895569 871.607576,796.323352 C870.212243,793.391569 866.88316,792.045082 868.078799,789.45119 C864.565188,787.558488 860.983326,789.306379 859.668882,793.132433 C858.162326,791.742758 858.516215,790.645244 857.00966,789.247947 C854.449021,789.489298 851.14016,791.262596 850.98091,793.942866 C850.035521,791.727515 848.263549,791.084758 846.529493,789.758596 C845.283299,790.396271 847.123521,791.529352 846.506743,792.26865 C841.810132,792.784379 842.29041,798.198271 837.773271,797.469136 C837.315743,799.074758 840.03816,801.193569 841.317215,803.07865 C841.734299,804.81892 840.394576,806.282271 841.868271,808.195298 C839.686799,808.398542 840.182243,810.255677 839.439076,811.571677 C838.748993,810.654542 838.063965,809.785677 837.366299,809.668812 C836.097354,811.874001 839.221688,814.798163 836.997243,816.843298 C834.825882,815.059839 832.641882,813.479623 830.432604,815.153839 C829.992771,813.474542 829.472049,812.48119 827.778438,811.266812 C827.879549,810.547839 828.620188,809.935569 828.096938,809.120055 C826.815354,807.085082 825.508493,807.527136 824.22691,806.919947 C822.591438,804.038974 822.599021,801.404433 820.415021,798.437082 C821.711771,797.667298 822.644521,797.494542 822.533299,795.952433 C821.239076,795.253785 819.952438,794.504325 818.67591,792.494758 C817.846799,793.409352 818.514132,794.565298 816.845799,795.350325 C813.266465,792.713244 815.432771,791.206704 813.03391,788.125028 C811.906521,788.328271 810.885299,790.790055 811.792771,792.324542 C811.297326,792.581136 810.799354,791.646217 810.30391,791.14319 C808.200799,791.872325 808.815049,794.029244 807.270576,795.688217 C808.354993,797.329406 809.46216,796.503731 810.544049,798.421839 C810.311493,799.326271 808.081993,800.134163 806.919215,801.610217 C805.523882,801.130055 804.141188,799.702271 802.743326,799.671785 C801.916743,800.898866 803.41066,802.507028 801.219076,803.518163 C800.685715,805.835136 803.375271,808.690704 802.04566,810.890812 C799.01991,808.993028 798.339938,804.06692 796.138243,802.385082 C795.248465,802.977028 795.976465,803.825569 796.413771,804.63092 C791.770243,801.404433 785.076688,796.620596 781.88916,790.017731 C780.898271,789.380055 781.666715,791.615731 780.377549,791.979028 C775.797215,788.003082 768.138049,783.912812 771.229521,777.594488 C767.645132,772.830974 769.273021,768.893136 768.954521,764.650433 C769.856938,763.847623 770.766938,763.047352 771.676938,762.259785 C766.719965,757.618217 766.474771,752.308488 764.032938,747.176596 C762.75641,745.703082 761.444493,746.853947 760.145215,746.86665 C760.928826,744.79865 759.733188,743.95265 757.789326,742.712866 C758.580521,741.795731 758.770104,740.771893 758.418743,739.666758 C757.238271,737.647028 756.029993,739.39492 754.844465,737.829947 C753.868743,734.677136 753.163493,731.948596 750.438549,729.260704 C751.44966,727.708433 752.42791,729.611298 753.431438,728.483298 C753.891493,727.713515 753.79291,726.862433 754.058326,726.069785 C751.945104,724.146596 750.635715,727.522974 749.85716,727.901515 C746.073076,724.814758 743.085243,719.626974 745.468938,716.812055 C747.276299,714.680542 752.736299,715.673893 750.605382,711.034866 C749.427438,709.434325 748.224215,709.787461 747.048799,707.95065 C749.849576,706.49492 748.853632,703.512325 746.497743,702.196325 C745.964382,698.329623 742.165132,693.94719 743.024576,690.309136 C741.636826,688.744163 740.241493,688.533298 738.853743,688.378325 C736.242549,684.846974 738.14091,681.320704 733.856326,678.442271 C734.993826,677.062758 733.952382,675.322488 734.794132,673.87692 C736.765799,675.774704 735.787549,677.187244 736.245076,678.828433 C738.525132,680.533136 740.810243,682.060001 743.080188,684.034001 C743.633771,685.377947 741.808715,686.338271 743.044799,687.799082 C744.953271,686.953082 746.851632,686.122325 748.734826,687.766055 C747.925938,689.145569 747.132215,687.860055 746.335965,688.007406 C745.249021,688.675569 746.232326,689.681623 746.313215,690.522542 C748.58316,692.598163 750.923882,688.888974 753.181188,691.947785 C754.280771,691.299947 753.714549,690.121136 754.986021,690.349785 C758.097715,693.111352 761.993021,694.191082 764.265493,690.903623 C765.802382,691.564163 766.558188,692.481298 766.927243,694.170758 C766.219465,695.247947 765.521799,694.767785 764.824132,695.405461 C765.607743,696.731623 766.401465,696.90692 767.190132,697.674163 C767.265965,694.285082 771.87916,695.410542 772.033354,692.16119 C771.047521,690.951893 770.05916,689.742596 769.078382,688.533298 C769.480299,686.818433 769.813965,685.088325 769.429743,683.248974 C766.843826,680.677947 764.022826,684.890163 764.300882,687.141082 C760.789799,689.610488 757.349493,683.386163 753.843465,685.76919 C753.385938,684.166109 754.093715,683.955244 755.360132,683.175298 C757.475882,685.779352 765.408049,684.468433 762.877743,679.671893 C764.391882,677.131352 765.87316,679.105352 767.382243,677.570866 C768.251799,679.481352 769.366549,680.340055 770.951465,680.037731 C774.229993,675.637515 767.37466,669.603731 765.410576,664.360055 C769.257854,662.772217 766.755354,660.165623 767.559188,658.102704 C769.472715,658.638758 769.510632,661.537515 771.419104,662.17519 C773.309882,661.011623 772.230521,659.372974 773.850826,658.158596 C775.309354,658.181461 775.802271,659.63465 776.214299,661.067515 C773.208771,660.800758 773.049521,664.789406 769.606688,663.77065 C769.323576,665.256866 771.553076,666.189244 772.293715,664.517569 C773.964576,668.163244 769.384243,669.464001 771.914549,672.959785 C773.24416,674.791515 774.149104,673.086812 775.782049,675.782325 C776.568188,676.305677 777.387188,674.20719 778.178382,674.913461 C779.882104,676.628325 778.393243,678.162812 776.947354,678.485461 C776.553021,679.895461 777.690521,680.098704 778.716799,681.287677 C780.213243,680.586488 778.747132,679.402596 780.243576,678.703947 C781.631326,678.988488 783.019076,679.778596 784.39166,681.887244 C785.989215,682.616379 787.594354,681.277515 789.204549,680.774488 C789.732854,679.397515 788.355215,677.702974 787.442688,676.08465 C790.506354,675.040488 787.738438,672.959785 787.493243,671.067082 C787.220243,668.938109 790.021021,664.736055 786.964938,663.440379 C785.385076,662.271731 783.749604,666.237515 782.172271,663.915461 C786.664132,661.811893 784.103493,658.562542 785.536743,655.963569 C782.609576,652.833623 780.640438,647.13519 777.230465,648.329244 C775.875576,649.099028 776.985271,651.088271 775.114715,650.821515 C776.027243,644.048433 772.392299,636.543677 775.903382,630.187244 C777.695576,631.20092 779.452382,634.635731 781.257215,633.563623 C784.543326,639.165515 784.52816,646.959893 791.593299,648.766217 C789.538215,649.091406 790.574604,651.433785 790.953771,653.067352 C794.224715,655.191244 797.536104,653.415406 800.837382,652.455082 C802.27316,651.225461 801.471854,649.627461 801.471854,648.153947 C799.785826,647.201244 798.056826,651.078109 796.370799,650.163515 C794.525521,646.931947 796.742382,644.353298 794.052826,640.97692 C795.068993,639.544055 796.06241,639.856542 797.060882,640.214758 C798.671076,638.794596 795.501243,636.60465 797.103854,635.187028 C798.751965,636.205785 798.152882,637.473515 800.36216,639.178217 C800.645271,640.369731 799.06541,641.266542 798.835382,642.392001 C800.311604,644.358379 801.845965,640.639028 803.334826,640.910866 C804.841382,643.774055 808.033965,646.817623 810.460632,646.459406 C810.743743,649.256542 812.803882,649.741785 814.618826,650.280379 C813.519243,650.724974 814.259882,651.482055 813.413076,651.969839 C815.185049,653.796488 816.967132,655.585028 818.749215,656.611406 C817.748215,659.797244 822.113688,663.862109 822.242604,667.241028 C823.921049,669.298866 825.627299,667.942217 827.315854,669.006704 C828.281465,667.266433 827.641938,665.284812 826.168243,663.153298 C826.77491,662.416542 827.381576,662.195515 827.98066,662.190433 C827.331021,658.516812 828.043854,655.066758 829.267299,651.700542 C826.906354,649.223515 828.357299,647.358758 828.132326,645.227244 C828.738993,644.437136 829.327965,645.313623 829.934632,644.259298 C831.706604,645.801406 831.087299,646.959893 831.696493,648.319082 C832.384049,648.984704 833.089299,648.329244 833.789493,648.341947 C834.034688,647.015785 833.670688,645.593082 832.336021,644.017947 C834.12316,642.52665 833.405271,640.626325 835.076132,639.114704 C836.163076,641.373244 838.488632,641.87119 840.399632,645.006217 C836.870854,645.720109 842.33591,650.651298 843.943576,649.980596 C843.915771,653.067352 843.705965,658.232271 848.048688,660.076704 C852.077965,655.211569 843.384938,650.153352 844.004243,644.955406 C845.40716,643.784217 846.774688,646.634704 848.197826,644.373623 C849.608326,645.966542 847.472354,646.990379 847.254965,648.314001 C849.47941,650.562379 849.848465,652.505893 851.984438,654.739028 C851.918715,655.996596 851.291826,657.147461 850.755938,658.316109 C851.448549,659.248488 852.14116,659.68292 852.838826,659.591461 C854.130521,661.944001 850.809021,664.332109 848.905604,663.67919 C848.127049,662.817947 848.468299,662.142163 848.033521,661.346974 C846.95416,661.519731 844.88391,662.256488 844.72466,663.633461 C848.584576,666.852325 852.449549,668.61292 856.377715,665.198433 C855.877215,662.495298 857.017243,660.061461 856.744243,657.404055 C859.562715,655.747623 862.290188,662.673136 865.111188,659.378055 C865.083382,661.93892 865.803799,664.266055 867.735021,666.40265 C865.227465,667.990488 862.755299,665.508379 860.26291,666.140974" id="Fill-193" fill-opacity="0.32" fill="#252B45" transform="translate(822.858118, 723.515271) rotate(-87.000000) translate(-822.858118, -723.515271) "></path>
                        <path d="M1070.80425,843.773504 C1071.86972,845.626424 1075.52899,847.891105 1074.89145,849.484616 C1073.22775,851.214009 1067.93099,844.650553 1070.80425,843.773504 Z M1033.80057,800.773504 C1030.68457,799.654757 1031.19657,791.88265 1033.88457,791.773504 C1034.84057,794.929643 1033.70857,797.735606 1033.80057,800.773504 Z M1006.84528,758.214893 C1004.69328,756.734893 1008.92928,753.490893 1009.68928,756.702893 C1008.73728,758.342893 1007.79328,756.966893 1006.84528,758.214893 Z M893.965496,619.008527 C896.977467,618.223956 899.971481,619.471423 902.965496,621.742755 C900.128589,623.900323 895.020359,622.519479 893.965496,619.008527 Z M1136.9655,903.880766 C1139.33009,901.650852 1141.64039,903.024411 1143.9655,905.907189 C1141.81811,907.000949 1144.40485,908.768771 1141.58115,909.773504 C1138.74265,907.140849 1137.77015,906.878007 1136.9655,903.880766 Z M1008.9655,748.450665 C1011.52594,747.890665 1014.04676,748.186665 1016.60225,747.954665 C1018.8804,751.930665 1009.72818,753.406665 1008.9655,748.450665 Z M1146.28316,907.773504 C1144.63116,905.502293 1145.35916,903.670531 1145.85516,901.773504 C1146.80316,903.013533 1147.73916,904.24486 1148.67116,905.48924 C1147.87516,906.241959 1147.08316,907.007732 1146.28316,907.773504 Z M942.320358,651.358958 C944.542354,648.971091 947.451362,654.581577 945.084112,655.773504 C943.820009,655.588896 940.969888,652.591018 942.320358,651.358958 Z M937.965496,643.740423 C939.13311,641.714915 940.242825,644.310371 941.386315,645.305588 C943.099136,643.205549 941.781952,640.658319 943.157034,638.514437 C943.924185,638.483747 944.676862,638.431136 945.458488,637.773504 C947.137535,637.992715 950.013145,641.193193 949.964897,642.771511 C946.987965,644.503277 945.767278,646.493711 946.481356,648.773504 C943.639519,648.532372 940.788033,646.945285 937.965496,643.740423 Z M959.965496,669.619742 C962.218107,667.875742 966.462885,669.755742 966.965496,672.075742 C964.612363,673.387742 962.277507,672.175742 959.965496,669.619742 Z M898.42812,591.773504 C897.150264,590.456039 895.965496,589.142495 895.965496,587.997555 C897.975369,587.154534 899.964086,588.891549 901.965496,589.879648 C900.772267,591.522558 899.608656,590.793247 898.42812,591.773504 Z M951.965496,654.778573 C955.652946,654.627114 959.318128,657.892397 962.965496,661.527418 C959.264687,662.748001 955.612865,659.259984 951.965496,654.778573 Z M1131.9655,870.878358 C1134.32018,868.762358 1136.665,868.082358 1138.9655,870.794358 C1136.61082,872.482358 1134.26599,873.630358 1131.9655,870.878358 Z M992.488279,697.773504 C990.544279,694.489211 989.412279,691.336855 991.144279,688.773504 C993.404279,690.512247 994.720279,695.13476 992.488279,697.773504 Z M908.965496,593.200184 C914.7765,590.174855 920.449465,604.344002 926.287186,601.035471 C927.948109,602.968444 926.229298,604.344002 924.657433,605.773504 C919.723646,600.47356 912.17602,597.079617 908.965496,593.200184 Z" id="Combined-Shape" fill-opacity="0.4" fill="#6B74A2" transform="translate(1021.318327, 748.773504) rotate(148.000000) translate(-1021.318327, -748.773504) "></path>
                    </g>
                </g>
            </g>
        </g>
    </g>
</svg>